<svg width="20" height="20" viewBox="0 0 32 34" fill="none" xmlns="http://www.w3.org/2000/svg">
<path d="M15.2084 29.5C15.2084 30.6667 14.8056 31.6528 14 32.4584C13.1945 33.2639 12.2084 33.6667 11.0417 33.6667C9.87504 33.6667 8.88893 33.2639 8.08337 32.4584C7.27782 31.6528 6.87504 30.6667 6.87504 29.5C6.87504 28.3334 7.27782 27.3472 8.08337 26.5417C8.88893 25.7361 9.87504 25.3334 11.0417 25.3334C12.2084 25.3334 13.1945 25.7361 14 26.5417C14.8056 27.3472 15.2084 28.3334 15.2084 29.5ZM8.54171 22C8.54171 23.1667 8.13893 24.1528 7.33337 24.9584C6.52782 25.7639 5.54171 26.1667 4.37504 26.1667C3.20837 26.1667 2.22226 25.7639 1.41671 24.9584C0.611152 24.1528 0.208374 23.1667 0.208374 22C0.208374 20.8334 0.611152 19.8472 1.41671 19.0417C2.22226 18.2361 3.20837 17.8334 4.37504 17.8334C5.54171 17.8334 6.52782 18.2361 7.33337 19.0417C8.13893 19.8472 8.54171 20.8334 8.54171 22ZM8.54171 12C8.54171 13.1667 8.13893 14.1528 7.33337 14.9584C6.52782 15.7639 5.54171 16.1667 4.37504 16.1667C3.20837 16.1667 2.22226 15.7639 1.41671 14.9584C0.611152 14.1528 0.208374 13.1667 0.208374 12C0.208374 10.8334 0.611152 9.84724 1.41671 9.04168C2.22226 8.23613 3.20837 7.83335 4.37504 7.83335C5.54171 7.83335 6.52782 8.23613 7.33337 9.04168C8.13893 9.84724 8.54171 10.8334 8.54171 12ZM15.2084 4.50002C15.2084 5.66668 14.8056 6.65279 14 7.45835C13.1945 8.26391 12.2084 8.66668 11.0417 8.66668C9.87504 8.66668 8.88893 8.26391 8.08337 7.45835C7.27782 6.65279 6.87504 5.66668 6.87504 4.50002C6.87504 3.33335 7.27782 2.34724 8.08337 1.54168C8.88893 0.736128 9.87504 0.33335 11.0417 0.33335C12.2084 0.33335 13.1945 0.736128 14 1.54168C14.8056 2.34724 15.2084 3.33335 15.2084 4.50002ZM31.875 25.9167C31.875 27.1667 31.3959 28.2153 30.4375 29.0625C29.4792 29.9097 28.3473 30.3334 27.0417 30.3334C25.5973 30.3334 24.3334 29.8403 23.25 28.8542C22.1667 27.8681 21.0973 26.8889 20.0417 25.9167C19.1806 25.1111 18.2431 24.4167 17.2292 23.8334C16.2153 23.25 15.2639 22.5556 14.375 21.75C13.6528 21.1389 13.0556 20.4306 12.5834 19.625C12.1112 18.8195 11.875 17.9445 11.875 17C11.875 16.0556 12.0973 15.1806 12.5417 14.375C12.9862 13.5695 13.5695 12.8611 14.2917 12.25C15.1806 11.4722 16.1389 10.7847 17.1667 10.1875C18.1945 9.5903 19.1528 8.88891 20.0417 8.08335C21.0973 7.11113 22.1667 6.13196 23.25 5.14585C24.3334 4.15974 25.5973 3.66668 27.0417 3.66668C28.3473 3.66668 29.4792 4.09029 30.4375 4.93752C31.3959 5.78474 31.875 6.83335 31.875 8.08335C31.875 9.58335 31.75 11.0695 31.5 12.5417C31.25 14.0139 31.125 15.5 31.125 17C31.125 18.5 31.25 19.9861 31.5 21.4584C31.75 22.9306 31.875 24.4167 31.875 25.9167Z" fill="#7D665D"/>
</svg>
