<svg width="20" height="20" viewBox="0 0 32 34" fill="none" xmlns="http://www.w3.org/2000/svg">
<path d="M15.1667 29.5416C15.1667 30.7083 14.764 31.6944 13.9584 32.5C13.1529 33.3055 12.1667 33.7083 11.0001 33.7083C9.83342 33.7083 8.8473 33.3055 8.04175 32.5C7.23619 31.6944 6.83341 30.7083 6.83341 29.5416C6.83341 28.375 7.23619 27.3889 8.04175 26.5833C8.8473 25.7778 9.83342 25.375 11.0001 25.375C12.1667 25.375 13.1529 25.7778 13.9584 26.5833C14.764 27.3889 15.1667 28.375 15.1667 29.5416ZM8.50008 22.0416C8.50008 23.2083 8.0973 24.1944 7.29175 25C6.48619 25.8055 5.50008 26.2083 4.33341 26.2083C3.16675 26.2083 2.18064 25.8055 1.37508 25C0.569526 24.1944 0.166748 23.2083 0.166748 22.0416C0.166748 20.875 0.569526 19.8889 1.37508 19.0833C2.18064 18.2778 3.16675 17.875 4.33341 17.875C5.50008 17.875 6.48619 18.2778 7.29175 19.0833C8.0973 19.8889 8.50008 20.875 8.50008 22.0416ZM8.50008 12.0416C8.50008 13.2083 8.0973 14.1944 7.29175 15C6.48619 15.8055 5.50008 16.2083 4.33341 16.2083C3.16675 16.2083 2.18064 15.8055 1.37508 15C0.569526 14.1944 0.166748 13.2083 0.166748 12.0416C0.166748 10.875 0.569526 9.88887 1.37508 9.08331C2.18064 8.27775 3.16675 7.87498 4.33341 7.87498C5.50008 7.87498 6.48619 8.27775 7.29175 9.08331C8.0973 9.88887 8.50008 10.875 8.50008 12.0416ZM15.1667 4.54164C15.1667 5.70831 14.764 6.69442 13.9584 7.49998C13.1529 8.30553 12.1667 8.70831 11.0001 8.70831C9.83342 8.70831 8.8473 8.30553 8.04175 7.49998C7.23619 6.69442 6.83341 5.70831 6.83341 4.54164C6.83341 3.37498 7.23619 2.38886 8.04175 1.58331C8.8473 0.777753 9.83342 0.374976 11.0001 0.374976C12.1667 0.374976 13.1529 0.777753 13.9584 1.58331C14.764 2.38886 15.1667 3.37498 15.1667 4.54164ZM31.8334 25.9583C31.8334 27.2083 31.3542 28.2569 30.3959 29.1041C29.4376 29.9514 28.3056 30.375 27.0001 30.375C25.5556 30.375 24.2917 29.8819 23.2084 28.8958C22.1251 27.9097 21.0556 26.9305 20.0001 25.9583C19.139 25.1528 18.2015 24.4583 17.1876 23.875C16.1737 23.2916 15.2223 22.5972 14.3334 21.7916C13.6112 21.1805 13.014 20.4722 12.5417 19.6666C12.0695 18.8611 11.8334 17.9861 11.8334 17.0416C11.8334 16.0972 12.0556 15.2222 12.5001 14.4166C12.9445 13.6111 13.5279 12.9028 14.2501 12.2916C15.139 11.5139 16.0973 10.8264 17.1251 10.2291C18.1529 9.63192 19.1112 8.93053 20.0001 8.12498C21.0556 7.15275 22.1251 6.17359 23.2084 5.18748C24.2917 4.20137 25.5556 3.70831 27.0001 3.70831C28.3056 3.70831 29.4376 4.13192 30.3959 4.97914C31.3542 5.82637 31.8334 6.87498 31.8334 8.12498C31.8334 9.62498 31.7084 11.1111 31.4584 12.5833C31.2084 14.0555 31.0834 15.5416 31.0834 17.0416C31.0834 18.5416 31.2084 20.0278 31.4584 21.5C31.7084 22.9722 31.8334 24.4583 31.8334 25.9583Z" fill="#C3845A"/>
</svg>
