<svg width="30" height="30" viewBox="0 0 32 34" fill="none" xmlns="http://www.w3.org/2000/svg">
<path d="M16.7916 4.50001C16.7916 3.33334 17.1944 2.34723 18 1.54168C18.8055 0.736121 19.7916 0.333344 20.9583 0.333344C22.125 0.333344 23.1111 0.736121 23.9166 1.54168C24.7222 2.34723 25.125 3.33334 25.125 4.50001C25.125 5.66668 24.7222 6.65279 23.9166 7.45834C23.1111 8.2639 22.125 8.66668 20.9583 8.66668C19.7916 8.66668 18.8055 8.2639 18 7.45834C17.1944 6.65279 16.7916 5.66668 16.7916 4.50001ZM23.4583 12C23.4583 10.8333 23.8611 9.84723 24.6666 9.04168C25.4722 8.23612 26.4583 7.83334 27.625 7.83334C28.7916 7.83334 29.7777 8.23612 30.5833 9.04168C31.3888 9.84723 31.7916 10.8333 31.7916 12C31.7916 13.1667 31.3888 14.1528 30.5833 14.9583C29.7777 15.7639 28.7916 16.1667 27.625 16.1667C26.4583 16.1667 25.4722 15.7639 24.6666 14.9583C23.8611 14.1528 23.4583 13.1667 23.4583 12ZM23.4583 22C23.4583 20.8333 23.8611 19.8472 24.6666 19.0417C25.4722 18.2361 26.4583 17.8333 27.625 17.8333C28.7916 17.8333 29.7777 18.2361 30.5833 19.0417C31.3888 19.8472 31.7916 20.8333 31.7916 22C31.7916 23.1667 31.3888 24.1528 30.5833 24.9583C29.7777 25.7639 28.7916 26.1667 27.625 26.1667C26.4583 26.1667 25.4722 25.7639 24.6666 24.9583C23.8611 24.1528 23.4583 23.1667 23.4583 22ZM16.7916 29.5C16.7916 28.3333 17.1944 27.3472 18 26.5417C18.8055 25.7361 19.7916 25.3333 20.9583 25.3333C22.125 25.3333 23.1111 25.7361 23.9166 26.5417C24.7222 27.3472 25.125 28.3333 25.125 29.5C25.125 30.6667 24.7222 31.6528 23.9166 32.4583C23.1111 33.2639 22.125 33.6667 20.9583 33.6667C19.7916 33.6667 18.8055 33.2639 18 32.4583C17.1944 31.6528 16.7916 30.6667 16.7916 29.5ZM0.124958 8.08334C0.124958 6.83334 0.604125 5.78473 1.56246 4.93751C2.52079 4.09029 3.65274 3.66668 4.95829 3.66668C6.40274 3.66668 7.66663 4.15973 8.74996 5.14584C9.83329 6.13196 10.9027 7.11112 11.9583 8.08334C12.8194 8.8889 13.7569 9.58334 14.7708 10.1667C15.7847 10.75 16.7361 11.4445 17.625 12.25C18.3472 12.8611 18.9444 13.5695 19.4166 14.375C19.8888 15.1806 20.125 16.0556 20.125 17C20.125 17.9445 19.9027 18.8195 19.4583 19.625C19.0138 20.4306 18.4305 21.1389 17.7083 21.75C16.8194 22.5278 15.8611 23.2153 14.8333 23.8125C13.8055 24.4097 12.8472 25.1111 11.9583 25.9167C10.9027 26.8889 9.83329 27.8681 8.74996 28.8542C7.66663 29.8403 6.40274 30.3333 4.95829 30.3333C3.65274 30.3333 2.52079 29.9097 1.56246 29.0625C0.604125 28.2153 0.124958 27.1667 0.124958 25.9167C0.124958 24.4167 0.249958 22.9306 0.499958 21.4583C0.749958 19.9861 0.874958 18.5 0.874958 17C0.874958 15.5 0.749958 14.0139 0.499958 12.5417C0.249958 11.0695 0.124958 9.58334 0.124958 8.08334Z" fill="#7D665D"/>
</svg>
